<svg width="32" height="32" viewBox="0 0 32 32" fill="none" xmlns="http://www.w3.org/2000/svg">
<g id="Icon">
<path id="Icon_2" d="M19.8978 9.45097L17.1478 4.66404C16.6372 3.77523 15.3565 3.77098 14.84 4.65638L11.9382 9.63087C11.5539 10.2898 10.9058 10.7525 10.1578 10.9021L6.19281 11.6951C5.1659 11.9005 4.76576 13.1553 5.48419 13.9172L8.35196 16.9588C8.96519 17.6092 9.21175 18.5236 9.00863 19.3941L7.71058 24.9572C7.44375 26.1007 8.67855 27.0058 9.68877 26.4072L14.6411 23.4725C15.4793 22.9758 16.5218 22.9758 17.36 23.4725L22.3123 26.4072C23.3225 27.0058 24.5573 26.1007 24.2905 24.9572L22.9811 19.3454C22.7842 18.5018 23.0094 17.6152 23.5849 16.9678L26.4562 13.7376C27.1403 12.9679 26.7309 11.7463 25.7211 11.5443L21.6871 10.7375C20.9331 10.5867 20.2808 10.1178 19.8978 9.45097Z" stroke="white" stroke-width="2" stroke-miterlimit="10"/>
</g>
</svg>
