<svg width="32" height="32" viewBox="0 0 32 32" fill="none" xmlns="http://www.w3.org/2000/svg">
<g id="Icon">
<path id="Icon_2" d="M16 30.6666C24.1002 30.6666 30.6667 24.1001 30.6667 15.9999C30.6667 7.89974 24.1002 1.33325 16 1.33325M16 30.6666C7.89983 30.6666 1.33334 24.1001 1.33334 15.9999C1.33334 7.89974 7.89983 1.33325 16 1.33325M16 30.6666C18.9455 30.6666 21.3333 24.1001 21.3333 15.9999C21.3333 7.89974 18.9455 1.33325 16 1.33325M16 30.6666C13.0545 30.6666 10.6667 24.1001 10.6667 15.9999C10.6667 7.89974 13.0545 1.33325 16 1.33325M2.66668 10.6666H29.3333M2.66668 19.9999H29.3333" stroke="white" stroke-width="2" stroke-linecap="round"/>
</g>
</svg>
